<?xml version="1.0" encoding="utf-8"?>
<!-- Generator: Adobe Illustrator 22.1.0, SVG Export Plug-In . SVG Version: 6.00 Build 0)  -->
<svg version="1.1" id="Layer_1" xmlns="http://www.w3.org/2000/svg" xmlns:xlink="http://www.w3.org/1999/xlink" x="0px" y="0px"
	 viewBox="0 0 60 60" style="enable-background:new 0 0 60 60;" xml:space="preserve">
<style type="text/css">
	.st0{fill:#FFFFFF;}
	.st1{fill:#C6A02F;}
	.st2{fill:#231F20;}
</style>
<g>
	<g>
		<path class="st0" d="M48.7,53.7c0,1.4-1.1,2.5-2.5,2.5H13.6c-1.4,0-2.5-1.1-2.5-2.5V7c0-1.4,1.1-2.5,2.5-2.5h32.6
			c1.4,0,2.5,1.1,2.5,2.5V53.7z"/>
		<g>
			<g>
				<path class="st1" d="M48.7,53.7c0,1.4-1.1,2.5-2.5,2.5H13.6c-1.4,0-2.5-1.1-2.5-2.5V7c0-1.4,1.1-2.5,2.5-2.5h32.6
					c1.4,0,2.5,1.1,2.5,2.5V53.7z M50.5,7c0-2.3-1.9-4.3-4.3-4.3H13.6c-2.4,0-4.3,1.9-4.3,4.3v46.7c0,2.4,1.9,4.3,4.3,4.3h32.6
					c2.3,0,4.3-1.9,4.3-4.3V7z"/>
			</g>
			<g>
				<path class="st2" d="M14.2,47.8l0.5,2h-1L14.2,47.8z M12.3,51.8h0.9l0.3-1H15l0.3,1h0.9l-1.5-5.1h-1L12.3,51.8z"/>
				<path class="st2" d="M16.7,46.6h0.9v2.1l1.6-2.1h1.1l-1.7,2.1l1.8,3h-1.1L18,49.5L17.6,50v1.7h-0.9V46.6z"/>
				<path class="st2" d="M21.6,51.8h-0.9v-5.1h0.9V51.8z"/>
				<path class="st2" d="M22.9,49.8v0.1c0,0.4,0,0.7,0.1,0.8c0.1,0.2,0.2,0.2,0.4,0.2c0.2,0,0.3-0.1,0.4-0.3c0-0.1,0.1-0.3,0.1-0.5
					v-3.6h0.9v3.6c0,0.4-0.1,0.8-0.2,1c-0.2,0.4-0.6,0.6-1.1,0.6c-0.5,0-0.9-0.2-1.1-0.5c-0.2-0.3-0.3-0.8-0.3-1.4v-0.1H22.9z"/>
				<path class="st2" d="M29.9,48.2c-0.1-0.4-0.2-0.6-0.5-0.7c-0.1-0.1-0.3-0.1-0.5-0.1c-0.3,0-0.6,0.2-0.8,0.5
					c-0.2,0.3-0.3,0.8-0.3,1.4c0,0.6,0.1,1.1,0.3,1.3c0.2,0.3,0.5,0.4,0.8,0.4c0.3,0,0.5-0.1,0.7-0.3c0.2-0.2,0.3-0.5,0.3-0.8h-0.9
					V49h1.7v2.8h-0.6l-0.1-0.6c-0.2,0.2-0.3,0.4-0.4,0.5c-0.2,0.2-0.5,0.3-0.8,0.3c-0.5,0-1-0.2-1.3-0.7c-0.4-0.5-0.5-1.1-0.5-1.9
					c0-0.8,0.2-1.5,0.5-2c0.4-0.5,0.9-0.7,1.5-0.7c0.5,0,0.9,0.2,1.3,0.5c0.3,0.3,0.5,0.7,0.5,1.2H29.9z"/>
				<path class="st2" d="M33.4,47.5c0.2,0,0.3,0,0.4,0.1c0.2,0.1,0.2,0.3,0.2,0.6c0,0.3-0.1,0.5-0.2,0.6c-0.1,0.1-0.2,0.1-0.4,0.1
					h-0.9v-1.4H33.4z M33.6,46.6h-2v5.1h0.9v-2h0.8c0.2,0,0.4,0.1,0.5,0.2c0.1,0.1,0.1,0.3,0.1,0.7l0,0.5c0,0.1,0,0.3,0,0.4
					c0,0.1,0,0.2,0.1,0.3H35v-0.1c-0.1-0.1-0.1-0.2-0.2-0.3c0-0.1,0-0.2,0-0.5v-0.3c0-0.4,0-0.6-0.1-0.8c-0.1-0.2-0.2-0.3-0.4-0.4
					c0.2-0.1,0.4-0.3,0.5-0.5c0.1-0.2,0.1-0.5,0.1-0.7c0-0.2,0-0.4-0.1-0.5c0-0.2-0.1-0.3-0.2-0.4c-0.1-0.2-0.2-0.3-0.4-0.4
					C34.1,46.7,33.9,46.6,33.6,46.6z"/>
				<path class="st2" d="M37.6,51c-0.3,0-0.6-0.2-0.8-0.5c-0.2-0.3-0.3-0.8-0.3-1.3c0-0.6,0.1-1,0.3-1.3c0.2-0.3,0.5-0.5,0.8-0.5
					c0.3,0,0.6,0.2,0.8,0.5c0.2,0.3,0.3,0.8,0.3,1.3c0,0.6-0.1,1-0.3,1.3C38.2,50.8,37.9,51,37.6,51z M39.5,49.2
					c0-0.9-0.2-1.6-0.6-2.1c-0.3-0.4-0.8-0.6-1.3-0.6c-0.6,0-1,0.2-1.4,0.6c-0.4,0.5-0.6,1.2-0.6,2.1c0,0.9,0.2,1.6,0.6,2.1
					c0.3,0.4,0.8,0.6,1.4,0.6c0.6,0,1-0.2,1.3-0.6C39.3,50.8,39.5,50.1,39.5,49.2z"/>
				<path class="st2" d="M40.2,46.6h0.9v3.1c0,0.3,0,0.6,0.1,0.8c0.1,0.3,0.3,0.4,0.7,0.4c0.3,0,0.6-0.1,0.7-0.4
					c0.1-0.2,0.1-0.4,0.1-0.8v-3.1h0.9v3.2c0,0.5-0.1,1-0.2,1.3c-0.3,0.6-0.7,0.8-1.4,0.8c-0.7,0-1.2-0.3-1.4-0.8
					c-0.1-0.3-0.2-0.7-0.2-1.3V46.6z"/>
				<path class="st2" d="M46.5,48.3c0,0.3-0.1,0.5-0.2,0.6C46.3,49,46.1,49,45.9,49h-0.8v-1.5h0.8c0.2,0,0.3,0.1,0.4,0.2
					C46.5,47.8,46.5,48,46.5,48.3z M47.4,48.3c0-0.6-0.1-1-0.4-1.2c-0.2-0.3-0.6-0.4-1-0.4h-1.8v5.1h0.9v-1.8H46
					c0.4,0,0.8-0.1,1-0.4C47.3,49.3,47.4,48.9,47.4,48.3z"/>
			</g>
			<g>
				<path class="st2" d="M30,39.3c0,0-6.6,8.8-17.6-1.2V7.9c0,0-0.3-2,1.7-2h31.7c0,0,1.7-0.3,1.7,2v30.1
					C47.5,38.1,38.3,48.2,30,39.3z"/>
				<path class="st1" d="M29.8,21c0,0-0.6-1.8-1.5-2.3c-0.9-0.5-1.7-2.8-0.7-5c1-2.2,2.4-4.5,2.4-4.5s2.8,4.1,2.9,6.4
					c0.1,2.3-1.1,3-1.6,3.6c-0.5,0.6-1.1,0.9-1.1,1.9v4.3c0,0,1.3-3.3,2.9-4.4c1.1-0.8,2.8-1.5,5.3-1.6c1.9-0.1,3.4-0.8,3.4-0.8
					s-1,6.6-8.6,7c-0.7,0-2.4-0.2-3,0.7l0.1,9.4c0,0,1-1.8,1.3-2.9c0.4-1.1,2.2-5.7,8.6-5.8c1.3,0,5-0.1,5-0.1s-1.9,5.2-7.8,7.9
					c-0.7,0.3-2.3,0.6-4.1,0.3c-1.2-0.2-2.8,0.6-2.6,1.9c0.2,1.2,2.7,4.1,7.7,3.5c5-0.6,8.4-5,8.4-5v2.5c0,0-4.8,5.1-11.3,4.3
					c-0.8-0.1-3.6-0.9-5.7-3.8c0,0-2.4,4.6-9.2,3.7c-1.5-0.2-6.6-2.2-7.9-4.7v-2.1c0,0,3.2,4.9,9.7,5.1c6.2,0.2,6.5-3.6,6.5-3.6
					s0.6-1.7-3.1-1.7c-3.8,0.1-7.6-1.6-11.5-8.5c0,0,1.3,0.3,4.3,0.3c2.9,0,8.4,0.4,10.7,8.5v-8.8c0,0,0.1-1.5-1.9-1.1
					c-2.1,0.3-7.5-0.1-9.9-7.3c0,0,1.3,0.8,4,1c2.7,0.2,6.7,1.6,7.9,6.3L29.8,21z"/>
				<path class="st2" d="M28.6,25.2l-1.5-1c0,0-1.1,0.7-1.9,0.9c0,0,1.4-0.8,1.6-1.2l-2-0.8c0,0-0.9,0.8-1.8,0.8c0,0,1.3-0.5,1.5-1
					l-1.3-0.6c0,0-1.3,0.6-2.1,0.5c0,0,1.7-0.4,1.8-0.7l-1.3-0.7c0,0-0.8,0.1-1.6,0l1.2-0.2l-1.5-1.1l1.7,0.9l-0.3-1l0.7,1.2
					l1.7,0.8l-0.3-0.9c0,0,0.5,0.8,0.6,1l1.6,0.8c0,0-0.2-1.6-1-2.3c0,0,1.1,0.8,1.3,2.4c0,0,2,0.9,2.4,1.2
					c-0.1-0.2-0.5-1.6-1.2-2.1c0,0,1.1,0.8,1.4,2.2l0.6,0.6L28.6,25.2z"/>
				<path class="st2" d="M30,20.3L29.9,19c0,0-1.5-0.6-2-1.6c0,0,1.5,1.2,1.9,1.2l0-1.9c0,0-1-0.7-1.6-1.5c0,0,1.1,0.9,1.5,1.1
					l-0.1-1.8c0,0-0.9-0.9-1-1.5c0,0,0.8,0.9,1.2,1.2l0.1-1.9c0,0-0.5-0.6-0.7-0.9l0.7,0.6l0-1.3l0.2,1.4l0.9-0.7l-0.9,1l0,1.6
					c0,0,1.1-0.7,1.3-1c0,0-0.9,1.1-1.3,1.4l0,2c0,0,1.1-0.8,1.4-1.2c0,0-1.1,1.3-1.4,1.7v1.8c0,0,1-0.2,1.3-0.7
					c0,0-0.9,0.8-1.3,1.1l0.1,1C30.2,20.2,30.1,20.5,30,20.3z"/>
				<path class="st2" d="M28.7,35.6c0,0-0.5-0.9-1.3-1.4c0,0-0.9,0.9-3,0.6c0,0,2.4,0,2.9-0.9l-1.4-1.2c0,0-0.5,1-4.1,0.7
					c0,0,3.1-0.1,3.9-1l-2-0.9c0,0-1.3,0.6-2.5,0.8c0,0,1.8-0.8,2-1c0,0-3-1.1-3.6-1.2l-1.8,0.4l1.5-0.6l-1.8-0.8l-1.1,0l0.7-0.3
					l-1.2-0.8l1.3,0.6l-0.1-0.6l0.4,0.8l2.2,1c0,0-0.4-1.3-1-1.9c0,0,1.1,0.9,1.2,2l2.6,0.9l-0.9-1.8l1.2,1.9c0,0,2.1,0.7,2.6,1
					c0,0-0.4-1.7-0.5-2.1c0,0,0.8,1.7,0.9,2.3l1.5,1.2L27.1,32c0,0,0.5,1.6,0.5,1.9c0,0,1.2,1.2,1.3,1.4
					C29,35.6,28.9,35.7,28.7,35.6z"/>
				<path class="st2" d="M31.2,25.2l1.5-1c0,0,1.1,0.7,1.9,0.9c0,0-1.4-0.8-1.6-1.2l2-0.8c0,0,0.9,0.8,1.8,0.8c0,0-1.3-0.5-1.5-1
					l1.3-0.6c0,0,1.3,0.6,2.1,0.5c0,0-1.7-0.4-1.8-0.7l1.3-0.7c0,0,0.8,0.1,1.6,0l-1.2-0.2l1.5-1.1l-1.7,0.9l0.3-1L38,21.3l-1.7,0.8
					l0.3-0.9c0,0-0.5,0.8-0.6,1l-1.6,0.8c0,0,0.2-1.6,1-2.3c0,0-1.1,0.8-1.3,2.4c0,0-2,0.9-2.4,1.2c0.1-0.2,0.5-1.6,1.2-2.1
					c0,0-1.1,0.8-1.4,2.2L31,25.1L31.2,25.2z"/>
				<path class="st2" d="M31.1,35.6c0,0,0.5-0.9,1.3-1.4c0,0,0.9,0.9,3,0.6c0,0-2.4,0-2.9-0.9l1.4-1.2c0,0,0.5,1,4.1,0.7
					c0,0-3.1-0.1-3.9-1l2-0.9c0,0,1.3,0.6,2.5,0.8c0,0-1.8-0.8-2-1c0,0,3-1.1,3.6-1.2l1.8,0.4L40.6,30l1.8-0.8l1.1,0L42.7,29
					l1.2-0.8l-1.3,0.6l0.1-0.6l-0.4,0.8l-2.2,1c0,0,0.4-1.3,1-1.9c0,0-1.1,0.9-1.2,2l-2.6,0.9l0.9-1.8L37,31.1c0,0-2.1,0.7-2.6,1
					c0,0,0.4-1.7,0.5-2.1c0,0-0.8,1.7-0.9,2.3l-1.5,1.2l0.2-1.5c0,0-0.5,1.6-0.5,1.9c0,0-1.2,1.2-1.3,1.4
					C30.9,35.6,31,35.7,31.1,35.6z"/>
			</g>
		</g>
	</g>
</g>
</svg>
